<?xml version="1.0" standalone="no"?>
<!DOCTYPE svg PUBLIC "-//W3C//DTD SVG 20010904//EN"
 "http://www.w3.org/TR/2001/REC-SVG-20010904/DTD/svg10.dtd">
<svg version="1.0" xmlns="http://www.w3.org/2000/svg"
 width="1280.000000pt" height="1274.000000pt" viewBox="0 0 1280.000000 1274.000000"
 preserveAspectRatio="xMidYMid meet">
<metadata>
Created by potrace 1.15, written by Peter Selinger 2001-2017
</metadata>
<g transform="translate(0.000000,1274.000000) scale(0.100000,-0.100000)"
fill="#000000" stroke="none">
<path d="M5933 12730 c-597 -36 -1154 -139 -1670 -309 -1144 -377 -2164 -1110
-2948 -2118 -876 -1126 -1316 -2455 -1315 -3973 1 -1288 333 -2446 988 -3445
250 -382 512 -703 853 -1044 1027 -1026 2241 -1622 3649 -1790 314 -38 460
-45 855 -45 380 0 510 6 820 40 1137 124 2172 530 3054 1197 611 462 1152
1038 1576 1677 160 241 263 422 395 694 327 671 513 1349 587 2146 21 232 24
894 5 1135 -76 941 -272 1695 -632 2430 -579 1182 -1560 2170 -2725 2745 -738
365 -1502 567 -2435 645 -218 18 -852 27 -1057 15z m727 -3170 c352 -37 630
-116 946 -270 386 -188 747 -487 1054 -874 362 -456 589 -971 680 -1543 53
-333 59 -747 14 -1053 -102 -697 -416 -1294 -956 -1815 -365 -353 -775 -596
-1219 -724 -292 -84 -550 -115 -899 -108 -263 5 -373 18 -575 67 -325 78 -657
234 -935 439 -398 294 -795 772 -1030 1242 -122 242 -218 523 -269 789 -99
515 -65 1147 89 1675 190 648 604 1257 1125 1653 384 291 844 469 1345 521
119 12 516 13 630 1z"/>
</g>
</svg>
